<svg xmlns="http://www.w3.org/2000/svg" width="1024" height="1024" viewBox="0 0 256 256" version="1.1" class="injected-svg" data-src="https://storage.googleapis.com/illustroke-c1d67.appspot.com/TLZp07NNBeXWg62rPN9B6N9q8yp2/pvg0cdsy9u5lvszqvarw8-1.svg?GoogleAccessId=illustroke-c1d67%40appspot.gserviceaccount.com&amp;Expires=16447017600&amp;Signature=mYyTiQM0X%2Fn1zcxbzwV%2BWAxj1SKsVpuVIDddF3UQdGlW%2BUpkJFxUOmAFf5qYee0LSXVEFWbdz4Z6f1OdeK%2BTZAvd7FWd0xTjjrEXyYZsw1Y88aoHNGt4zwQ4K5uHIQj2oNY7FrS%2FQ5%2BF5Ztusu%2FxSxggmHOQxYWVP3%2FxDN1ekWeiRh5w%2ByooNlpgxNVsTtZqKrh6l6jbjAnZjD81RRYyXB8%2BqdL2wFqLn0oezpn3hbgAir8GBDC19Gan5qJl87LpxsQv8kI6wJVCcGaNc%2BicNzbWZUnDRAgf4VyrmAVOFTBT4mfZ0qraycL9o8P7m85hvvts6iD%2FJDhu0afj%2Faj8hg%3D%3D" xmlns:xlink="http://www.w3.org/1999/xlink"><rect width="1024" height="1024" fill="white"/>
	<path d="M 167.374 82.764 C 163.710 83.355, 160.676 87.548, 160.478 92.293 C 160.330 95.857, 158.812 98.869, 151.601 109.904 L 142.902 123.214 139.701 118.651 C 137.940 116.141, 132.558 107.980, 127.740 100.515 C 121.831 91.360, 118.148 86.627, 116.425 85.971 C 115.020 85.437, 105.560 85, 95.403 85 C 75.757 85, 71.230 85.834, 69.080 89.850 C 67.584 92.646, 67.584 168.354, 69.080 171.150 C 71.250 175.204, 75.711 176, 96.245 176 C 111.088 176, 116.013 175.679, 117.534 174.614 C 118.623 173.851, 124.461 165.977, 130.507 157.117 C 136.553 148.256, 141.928 141.148, 142.451 141.320 C 142.974 141.493, 147.831 148.241, 153.245 156.317 C 162.054 169.457, 163.386 171, 165.922 171 C 169.088 171, 171.509 168.768, 170.681 166.612 C 170.122 165.156, 159.819 149.047, 152.762 138.597 C 147.988 131.528, 147.616 132.758, 160.205 114 C 165.937 105.459, 169.266 101.402, 170.714 101.191 C 179.457 99.918, 180.662 86.025, 172.266 83.314 C 170.745 82.822, 168.543 82.575, 167.374 82.764 M 98.010 97.255 C 93.189 98.874, 86.717 105.640, 85.230 110.616 C 81.926 121.674, 85.559 132.866, 94.363 138.750 C 98.490 141.508, 100.127 142, 105.179 142 C 111.652 142, 113.979 141.142, 118.384 137.128 L 121.268 134.500 120.590 138.954 C 118.575 152.181, 107.370 156.875, 96.353 149.110 C 91.438 145.645, 89.809 145.320, 88.040 147.452 C 86.117 149.769, 87.201 152.170, 91.732 155.626 C 97.449 159.987, 105.557 161.801, 111.830 160.123 C 123.162 157.092, 127.952 149.079, 128.772 131.785 C 129.186 123.045, 129.007 120.618, 127.896 119.915 C 127.128 119.429, 122.776 119.024, 118.225 119.015 C 110.320 119.001, 109.908 119.111, 109.003 121.491 C 107.377 125.769, 108.629 127, 114.607 127 C 117.573 127, 120 127.444, 120 127.986 C 120 128.528, 118.119 130.216, 115.820 131.736 C 110.531 135.233, 102.546 135.524, 98.253 132.376 C 89.970 126.303, 89.934 111.059, 98.190 106.026 C 101.968 103.722, 106.035 103.482, 112.408 105.187 C 115.998 106.147, 117.156 106.116, 118.471 105.024 C 120.841 103.057, 119.936 99.727, 116.598 98.132 C 112.734 96.285, 102.357 95.796, 98.010 97.255" stroke="none" fill="#000000" fill-rule="evenodd" fill-opacity="1"/>
</svg>